<svg width="159" height="84" viewBox="0 0 159 84" fill="none" xmlns="http://www.w3.org/2000/svg">
<path d="M8.89578 10.7692H0.51123V9.24391H18.9772V10.7692H10.5927V32.4544H8.89578V10.7692ZM38.0861 25.9223H24.5776L21.6164 32.4544H19.7864L30.5001 9.24391H32.1968L42.9105 32.4544H41.0805L38.0861 25.9223ZM37.4539 24.4966L31.3319 11.1007L25.2429 24.4966H37.4539ZM48.8021 9.24391H50.499V30.9293H63.9077V32.4544H48.8021V9.24391ZM76.8492 21.015L71.6255 26.3534V32.4544H69.9286V9.24391H71.6255V24.165L86.1654 9.24391H88.2282L77.9806 19.7882L88.927 32.4544H86.8641L76.8492 21.015ZM94.9867 9.24391H96.6835V32.4544H94.9867V9.24391ZM125.428 9.24391V32.4544H124.031L108.16 12.2944V32.4544H106.463V9.24391H107.894L123.731 29.4039V9.24391H125.428ZM151.861 20.9487H153.491V29.6361C152.471 30.6087 151.229 31.3493 149.765 31.8577C148.323 32.3661 146.793 32.6202 145.173 32.6202C142.867 32.6202 140.782 32.1118 138.918 31.095C137.077 30.0782 135.624 28.6744 134.56 26.8839C133.517 25.0934 132.996 23.0818 132.996 20.8493C132.996 18.6166 133.517 16.605 134.56 14.8144C135.624 13.0239 137.077 11.6202 138.918 10.6034C140.782 9.58655 142.878 9.07812 145.207 9.07812C146.915 9.07812 148.478 9.35445 149.898 9.90707C151.34 10.4376 152.571 11.2223 153.591 12.2613L152.526 13.3887C151.551 12.416 150.453 11.7197 149.233 11.2997C148.035 10.8576 146.704 10.6366 145.24 10.6366C143.244 10.6366 141.436 11.0787 139.817 11.9629C138.22 12.8471 136.966 14.0739 136.057 15.6434C135.147 17.1908 134.693 18.926 134.693 20.8493C134.693 22.7502 135.147 24.4855 136.057 26.055C136.989 27.6023 138.253 28.8293 139.85 29.7355C141.447 30.6196 143.244 31.0618 145.24 31.0618C147.902 31.0618 150.109 30.3544 151.861 28.9396V20.9487Z" fill="white"/>
<path d="M14.4852 72.5497C11.9122 72.5497 9.3983 72.2698 6.94355 71.7097C4.5184 71.1202 2.52207 70.3392 0.95459 69.3665L4.32616 61.7624C5.80492 62.6171 7.46112 63.3097 9.29478 63.8402C11.1284 64.3414 12.8882 64.5918 14.5739 64.5918C16.0231 64.5918 17.0582 64.4592 17.6793 64.194C18.3004 63.8992 18.611 63.4718 18.611 62.9118C18.611 62.2633 18.1969 61.7771 17.3688 61.4529C16.5703 61.1287 15.2394 60.775 13.3762 60.3918C10.9806 59.8907 8.98425 59.3602 7.38718 58.8002C5.79013 58.2107 4.40009 57.2676 3.21709 55.9708C2.03409 54.6445 1.44258 52.8612 1.44258 50.6213C1.44258 48.6761 1.98972 46.9075 3.08401 45.3161C4.17829 43.7245 5.80492 42.4718 7.96391 41.5581C10.1525 40.6444 12.7994 40.1876 15.9048 40.1876C18.0342 40.1876 20.1192 40.4233 22.16 40.8951C24.2302 41.337 26.0492 42.0002 27.6166 42.8845L24.4668 50.4445C21.4205 48.9119 18.537 48.1456 15.8161 48.1456C13.1248 48.1456 11.7791 48.7939 11.7791 50.0908C11.7791 50.7097 12.1784 51.1812 12.9769 51.5056C13.7754 51.8002 15.0915 52.1245 16.9252 52.4781C19.2911 52.9202 21.2876 53.4361 22.9142 54.0256C24.5408 54.5855 25.9455 55.5139 27.1286 56.8108C28.3413 58.1076 28.9476 59.876 28.9476 62.1161C28.9476 64.0613 28.4003 65.8297 27.306 67.4213C26.2118 68.9833 24.5703 70.2361 22.3818 71.1792C20.2229 72.0928 17.5906 72.5497 14.4852 72.5497ZM64.8913 40.8951V71.8424H54.4217V60.4361H44.7506V71.8424H34.281V40.8951H44.7506V51.8592H54.4217V40.8951H64.8913ZM86.0839 48.3224L90.3426 50.577L87.2816 55.5286L82.9342 52.8761L83.0671 57.6065H77.1226L77.2556 52.8761L72.9082 55.5286L69.8914 50.577L74.1503 48.3224L69.8914 46.0676L72.9082 41.1161L77.2556 43.7686L77.1226 39.0381H83.0671L82.9342 43.7686L87.2816 41.1161L90.3426 46.0676L86.0839 48.3224ZM108.649 64.0613H105.81V71.8424H95.3404V40.8951H110.291C113.16 40.8951 115.659 41.3666 117.788 42.3097C119.917 43.253 121.559 44.6086 122.712 46.377C123.866 48.1456 124.442 50.2087 124.442 52.5665C124.442 54.777 123.94 56.7077 122.934 58.3581C121.928 60.0087 120.479 61.3202 118.587 62.2929L125.108 71.8424H113.928L108.649 64.0613ZM113.884 52.5665C113.884 51.417 113.529 50.5329 112.819 49.914C112.11 49.2655 111.045 48.9413 109.625 48.9413H105.81V56.1918H109.625C111.045 56.1918 112.11 55.8824 112.819 55.2634C113.529 54.6149 113.884 53.7161 113.884 52.5665ZM136.924 48.9856H127.829V40.8951H156.488V48.9856H147.394V71.8424H136.924V48.9856Z" fill="white"/>
</svg>
